<?xml version="1.0" encoding="utf-8"?>
<!-- Generator: Adobe Illustrator 19.1.0, SVG Export Plug-In . SVG Version: 6.00 Build 0)  -->
<svg version="1.1" id="Layer_1" xmlns="http://www.w3.org/2000/svg" xmlns:xlink="http://www.w3.org/1999/xlink" x="0px" y="0px"
	 viewBox="0 0 74.6 58.2" enable-background="new 0 0 74.6 58.2" xml:space="preserve">
<g>
	<path fill="#1A82E2" d="M73,36.7c0-0.4-0.1-0.9-0.2-1.2c-0.4-1.8-1.4-3.1-3-3.8c-1.1-0.5-2.5-0.7-4-0.6c-8.3,0.5-20,11.1-21.8,12.8
		C66.7,49.8,73.3,41.7,73,36.7z"/>
	<path fill="#1A82E2" d="M72.6,32.3c-1.6-10.4-6-23.7-6-23.7C65.2,4.3,62.8,1,55.5,1c-7.3,0-14.7,5.8-24.4,14.3
		c0,0-13.5,12.9-23,13.4c-3.2,0.2-5.6-0.7-6.8-2.8c3,14.6,6,23.7,6,23.7c1.5,4.3,3.9,7.7,11.1,7.7c7.3,0,14.7-5.8,24.4-14.3
		c0,0,13.5-12.9,23-13.4C69.1,29.4,71.4,30.3,72.6,32.3z M15.9,42.3l7.9-19.7l7.6,28.1L15.9,42.3z M37.2,28.3L43,6.9l7.3,28.6
		L37.2,28.3z M63.9,5.3c0,0,4.4,12.1,6.7,24.2L58.9,17.8L63.9,5.3z"/>
	<path fill="#1A82E2" d="M1,21.5c0,0.4,0.1,0.9,0.2,1.2c0.4,1.8,1.4,3.1,3,3.8c1.1,0.5,2.5,0.7,4,0.6c8.3-0.5,20-11.1,21.8-12.8
		C7.3,8.4,0.7,16.5,1,21.5z"/>
</g>
</svg>